<?xml version="1.0" encoding="utf-8"?>
<svg xmlns="http://www.w3.org/2000/svg" height="1600px" style="shape-rendering:geometricPrecision; text-rendering:geometricPrecision; image-rendering:optimizeQuality; fill-rule:evenodd; clip-rule:evenodd" version="1.1" width="1600px">
<g>
    <path d="M 622.5,313.5 C 623.822,313.33 624.989,313.663 626,314.5C 635.502,330.175 645.502,345.508 656,360.5C 656.667,361.5 656.667,362.5 656,363.5C 602.9,398.144 552.4,436.31 504.5,478C 470.153,510.007 438.32,544.173 409,580.5C 378.723,620.717 356.056,665.05 341,713.5C 334.584,736.081 331.25,759.081 331,782.5C 366.558,755.982 406.392,739.149 450.5,732C 556.777,719.728 642.944,755.562 709,839.5C 755.943,907.524 772.276,982.524 758,1064.5C 749.043,1129.26 719.209,1182.09 668.5,1223C 629.365,1253.57 585.365,1272.57 536.5,1280C 479.297,1290.36 422.63,1288.03 366.5,1273C 297.675,1250.16 244.175,1208 206,1146.5C 176.651,1094.77 161.318,1039.11 160,979.5C 154.262,891.848 170.262,808.181 208,728.5C 240.432,661.594 281.765,600.927 332,546.5C 393.884,480.581 461.717,422.081 535.5,371C 564.134,351.185 593.134,332.018 622.5,313.5 Z" fill="#57d8da" style="opacity:1"/>
  </g>
<g>
    <path d="M 992.5,786.5 C 991.355,790.311 991.188,794.311 992,798.5C 992.717,797.956 993.217,797.289 993.5,796.5C 1060.92,739.807 1138.26,719.641 1225.5,736C 1299.66,753.473 1357.5,793.973 1399,857.5C 1432.02,911.238 1445.02,969.571 1438,1032.5C 1431.64,1086.29 1411.3,1133.96 1377,1175.5C 1364.8,1188.03 1352.97,1200.87 1341.5,1214C 1294.76,1253.49 1240.76,1276.49 1179.5,1283C 1124.88,1290.27 1071.22,1285.93 1018.5,1270C 932.474,1236.97 873.64,1177.14 842,1090.5C 831.855,1060.61 825.355,1029.94 822.5,998.5C 821.183,964.833 821.183,931.166 822.5,897.5C 828.316,845.238 841.482,794.904 862,746.5C 884.258,694.61 912.592,646.61 947,602.5C 983.948,556.212 1024.45,513.046 1068.5,473C 1136.73,413.723 1209.4,360.557 1286.5,313.5C 1297.57,329.29 1308.4,345.29 1319,361.5C 1319.78,362.944 1319.61,364.277 1318.5,365.5C 1243.83,412.328 1175.66,467.661 1114,531.5C 1083.77,563.977 1057.44,599.31 1035,637.5C 1017.37,670.711 1004.71,705.711 997,742.5C 994.269,757.045 992.769,771.712 992.5,786.5 Z" fill="#57d8da" style="opacity:1"/>
  </g>
<g>
    <path d="M 992.5,786.5 C 992.187,790.042 992.521,793.375 993.5,796.5C 993.217,797.289 992.717,797.956 992,798.5C 991.188,794.311 991.355,790.311 992.5,786.5 Z" fill="#060303" style="opacity:0.168"/>
  </g>
<g>
    <path d="M 822.5,897.5 C 821.183,931.166 821.183,964.833 822.5,998.5C 819.833,964.834 819.833,931.168 822.5,897.5 Z" fill="#56cdcd" style="opacity:0.215"/>
  </g>
</svg>